<svg xmlns="http://www.w3.org/2000/svg" viewBox="0 0 96 120" x="0px" y="0px"><title>light bulb</title><g data-name="1"><path d="M66,62.84a31,31,0,1,0-35.94,0v2.68a11.61,11.61,0,0,0,11.59,11.6H54.38A11.61,11.61,0,0,0,66,65.52Zm-3.86-3.42A2.5,2.5,0,0,0,61,61.52v4a6.6,6.6,0,0,1-6.59,6.6H50.5V33.86a3.13,3.13,0,1,1,6.25,0,2.5,2.5,0,0,0,5,0A8.11,8.11,0,0,0,48,28a8.11,8.11,0,0,0-13.75,5.85,2.5,2.5,0,0,0,5,0,3.13,3.13,0,1,1,6.25,0V72.12H41.62A6.6,6.6,0,0,1,35,65.52v-4a2.5,2.5,0,0,0-1.14-2.1,26,26,0,1,1,28.22,0ZM61,84.42a2.5,2.5,0,0,1,0,5H35a2.5,2.5,0,0,1,0-5Z"/></g></svg>