<svg xmlns="http://www.w3.org/2000/svg" viewBox="0 0 754 344" preserveAspectRatio="xMidYMid slice" style="width: 100%; height: 100%; transform: translate3d(0px, 0px, 0px);"><defs><clipPath id="__lottie_element_1166"><rect width="754" height="344" x="0" y="0"></rect></clipPath></defs><g clip-path="url(#__lottie_element_1166)"><g transform="matrix(1,0,0,1,11.129974365234375,43.766998291015625)" opacity="1" style="display: none;"><g opacity="1" transform="matrix(1,0,0,1,366.1730041503906,8.42300033569336)"><path stroke-linecap="round" stroke-linejoin="round" fill-opacity="0" stroke="rgb(71,71,71)" stroke-opacity="1" stroke-width="3" d=" M333.8940124511719,0.08799999952316284 C252.6320037841797,0.921999990940094 -252.64100646972656,0.5849999785423279 -333.89300537109375,-0.9229999780654907"></path></g><g opacity="1" transform="matrix(1,0,0,1,11.26200008392334,143.9219970703125)"><path stroke-linecap="round" stroke-linejoin="round" fill-opacity="0" stroke="rgb(71,71,71)" stroke-opacity="1" stroke-width="3" d=" M2.8570001125335693,-134.15899658203125 C3.309999942779541,-105.38700103759766 3.76200008392334,-76.58399963378906 2.0910000801086426,-47.856998443603516 C0.33399999141693115,-17.667999267578125 -3.763000011444092,12.616999626159668 -0.6859999895095825,42.70100021362305 C0.6819999814033508,56.07899856567383 3.4690001010894775,92.4010009765625 2.9000000953674316,105.83699798583984 C2.4690001010894775,116.0250015258789 0.16599999368190765,124.61499786376953 3.756999969482422,134.15899658203125"></path></g><g opacity="1" transform="matrix(1,0,0,1,353.5559997558594,289.9179992675781)"><path stroke-linecap="round" stroke-linejoin="round" fill-opacity="0" stroke="rgb(71,71,71)" stroke-opacity="1" stroke-width="3" d=" M-339.22100830078125,-2.0840001106262207 C-287.9679870605469,-3.506999969482422 -236.66099548339844,-2.990000009536743 -185.44700622558594,-0.5339999794960022 C-151.8730010986328,1.0759999752044678 305.9460144042969,3.507999897003174 339.22100830078125,-1.2480000257492065"></path></g><g opacity="1" transform="matrix(1,0,0,1,700.125,148.0290069580078)"><path stroke-linecap="round" stroke-linejoin="round" fill-opacity="0" stroke="rgb(71,71,71)" stroke-opacity="1" stroke-width="3" d=" M0.15199999511241913,-134.156005859375 C-0.03700000047683716,-91.33799743652344 -0.22599999606609344,-48.52000045776367 -0.41499999165534973,-5.701000213623047 C-0.5040000081062317,14.505000114440918 -0.5929999947547913,57.7239990234375 0.4729999899864197,77.9020004272461 C1.5080000162124634,97.49800109863281 3.5239999294281006,115.84300231933594 -3.5239999294281006,134.156005859375"></path></g></g><g transform="matrix(1,0,0,1,16.4849853515625,44.02299499511719)" opacity="1" style="display: block;"><g opacity="1" transform="matrix(1,0,0,1,349.88800048828125,148.02999877929688)"><path stroke-linecap="round" stroke-linejoin="round" fill-opacity="0" stroke="rgb(71,71,71)" stroke-opacity="1" stroke-width="3" d=" M-339.9519958496094,137.54400634765625 C-329.88800048828125,135.71499633789062 -319.59600830078125,137.9080047607422 -309.43701171875,139.1020050048828 C-297.2829895019531,140.52999877929688 -285.0119934082031,140.52099609375 -272.7749938964844,140.51100158691406 C-210.0919952392578,140.45700073242188 278.54400634765625,135.39700317382812 341.22698974609375,135.34300231933594 C342.38800048828125,51.4119987487793 338.8599853515625,-53.7400016784668 338.12799072265625,-137.67599487304688 C308.5429992675781,-140.52999877929688 -145.23599243164062,-140.48599243164062 -174.95799255371094,-140.44000244140625 C-229.94200134277344,-140.35400390625 -284.9259948730469,-140.2689971923828 -339.9100036621094,-140.18299865722656 C-339.83099365234375,-70.8489990234375 -340.3970031738281,23.076000213623047 -340.3179931640625,92.41000366210938 C-340.30499267578125,103.58200073242188 -340.29998779296875,112.83300018310547 -342.38800048828125,123.80899810791016"></path></g></g><g transform="matrix(1,0,0,1,12.7659912109375,43.61199951171875)" opacity="1" style="display: none;"><g opacity="1" transform="matrix(1,0,0,1,351.60198974609375,146.98800659179688)"><path stroke-linecap="round" stroke-linejoin="round" fill-opacity="0" stroke="rgb(71,71,71)" stroke-opacity="1" stroke-width="3" d=" M-339.6820068359375,139.48800659179688 C-341.2300109863281,73.61900329589844 -339.9280090332031,-14.364999771118164 -335.8529968261719,-78.38400268554688 C-334.5799865722656,-98.38999938964844 -333.02801513671875,-118.34100341796875 -332.78900146484375,-138.9969940185547 C-276.02398681640625,-139.48699951171875 -213.1300048828125,-137.53799438476562 -156.36500549316406,-138.0279998779297 C-131.83299255371094,-138.23899841308594 316.70001220703125,-138.4499969482422 341.2309875488281,-138.66200256347656"></path></g><g opacity="1" transform="matrix(1,0,0,1,694.8889770507812,152.97900390625)"><path stroke-linecap="round" stroke-linejoin="round" fill-opacity="0" stroke="rgb(71,71,71)" stroke-opacity="1" stroke-width="3" d=" M-1.8849999904632568,-132.447998046875 C-1.9950000047683716,-96.23699951171875 -2.1040000915527344,-60.025001525878906 -2.2139999866485596,-23.81399917602539 C-2.265000104904175,-7.019000053405762 -2.313999891281128,9.812000274658203 -0.6370000243186951,26.523000717163086 C0.5139999985694885,37.99100112915039 2.4769999980926514,72.41699981689453 2.4159998893737793,83.94200134277344 C2.380000114440918,90.86499786376953 1.6119999885559082,97.76100158691406 0.8450000286102295,104.64199829101562 C-0.2630000114440918,114.5770034790039 -1.3700000047683716,122.51300048828125 -2.4769999980926514,132.447998046875"></path></g><g opacity="1" transform="matrix(1,0,0,1,345.9700012207031,287.22198486328125)"><path stroke-linecap="round" stroke-linejoin="round" fill-opacity="0" stroke="rgb(71,71,71)" stroke-opacity="1" stroke-width="3" d=" M338.4700012207031,0.2370000034570694 C291.49798583984375,-1.2359999418258667 -179.48199462890625,-2.493000030517578 -226.4720001220703,-3.125 C-263.94500732421875,-3.628000020980835 -301.7340087890625,-3.7049999237060547 -338.4700012207031,3.7039999961853027 C-337.5069885253906,2.680000066757202 -335.8800048828125,2.3469998836517334 -334.59100341796875,2.9100000858306885"></path></g></g><g transform="matrix(1,0,0,1,9.194000244140625,39.579010009765625)" opacity="1" style="display: none;"><g opacity="1" transform="matrix(1,0,0,1,353.9079895019531,151.91400146484375)"><path stroke-linecap="round" stroke-linejoin="round" fill-opacity="0" stroke="rgb(71,71,71)" stroke-opacity="1" stroke-width="3" d=" M-333.8269958496094,-142.41700744628906 C-256.0979919433594,-144.41400146484375 245.57699584960938,-137.0030059814453 323.33099365234375,-136.7949981689453 C329.6719970703125,-136.7779998779297 336.1099853515625,-136.82200622558594 342.2030029296875,-138.5800018310547 C342.57598876953125,-55.10900115966797 342.427001953125,48.7859992980957 342.79998779296875,132.2570037841797 C342.8080139160156,133.90899658203125 342.4809875488281,136.01699829101562 340.875,136.406005859375 C259.5830078125,132.4010009765625 -244.9320068359375,135.72000122070312 -325.96600341796875,143.3350067138672 C-331.5679931640625,143.86099243164062 -337.2200012207031,144.41400146484375 -342.8080139160156,143.7469940185547"></path></g><g opacity="1" transform="matrix(1,0,0,1,14.762999534606934,153.7310028076172)"><path stroke-linecap="round" stroke-linejoin="round" fill-opacity="0" stroke="rgb(71,71,71)" stroke-opacity="1" stroke-width="3" d=" M4.679999828338623,-144.3719940185547 C7.263999938964844,-55.02399826049805 -7.263999938964844,55.845001220703125 0.24199999868869781,144.3719940185547"></path></g></g><g transform="matrix(1,0,0,1,12.7659912109375,43.61199951171875)" opacity="1" style="display: none;"><g opacity="1" transform="matrix(1,0,0,1,351.60198974609375,146.98800659179688)"><path stroke-linecap="round" stroke-linejoin="round" fill-opacity="0" stroke="rgb(71,71,71)" stroke-opacity="1" stroke-width="3" d=" M-339.6820068359375,139.48800659179688 C-341.2300109863281,73.61900329589844 -339.9280090332031,-14.364999771118164 -335.8529968261719,-78.38400268554688 C-334.5799865722656,-98.38999938964844 -333.02801513671875,-118.34100341796875 -332.78900146484375,-138.9969940185547 C-276.02398681640625,-139.48699951171875 -213.1300048828125,-137.53799438476562 -156.36500549316406,-138.0279998779297 C-131.83299255371094,-138.23899841308594 316.70001220703125,-138.4499969482422 341.2309875488281,-138.66200256347656"></path></g><g opacity="1" transform="matrix(1,0,0,1,694.8889770507812,152.97900390625)"><path stroke-linecap="round" stroke-linejoin="round" fill-opacity="0" stroke="rgb(71,71,71)" stroke-opacity="1" stroke-width="3" d=" M-1.8849999904632568,-132.447998046875 C-1.9950000047683716,-96.23699951171875 -2.1040000915527344,-60.025001525878906 -2.2139999866485596,-23.81399917602539 C-2.265000104904175,-7.019000053405762 -2.313999891281128,9.812000274658203 -0.6370000243186951,26.523000717163086 C0.5139999985694885,37.99100112915039 2.4769999980926514,72.41699981689453 2.4159998893737793,83.94200134277344 C2.380000114440918,90.86499786376953 1.6119999885559082,97.76100158691406 0.8450000286102295,104.64199829101562 C-0.2630000114440918,114.5770034790039 -1.3700000047683716,122.51300048828125 -2.4769999980926514,132.447998046875"></path></g><g opacity="1" transform="matrix(1,0,0,1,345.9700012207031,287.22198486328125)"><path stroke-linecap="round" stroke-linejoin="round" fill-opacity="0" stroke="rgb(71,71,71)" stroke-opacity="1" stroke-width="3" d=" M338.4700012207031,0.2370000034570694 C291.49798583984375,-1.2359999418258667 -179.48199462890625,-2.493000030517578 -226.4720001220703,-3.125 C-263.94500732421875,-3.628000020980835 -301.7340087890625,-3.7049999237060547 -338.4700012207031,3.7039999961853027 C-337.5069885253906,2.680000066757202 -335.8800048828125,2.3469998836517334 -334.59100341796875,2.9100000858306885"></path></g></g><g transform="matrix(1,0,0,1,51.68199920654297,24.94300079345703)" opacity="1" style="display: block;"><g opacity="1" transform="matrix(1,0,0,1,8.586000442504883,10.463000297546387)"><path stroke-linecap="round" stroke-linejoin="round" fill-opacity="0" stroke="rgb(71,71,71)" stroke-opacity="1" stroke-width="3" d=" M-0.9390000104904175,2.049999952316284 C-0.921999990940094,1.6339999437332153 -0.8709999918937683,1.218999981880188 -0.7879999876022339,0.8100000023841858"></path></g></g><g transform="matrix(1,0,0,1,31.87999725341797,14.379000663757324)" opacity="1" style="display: block;"><g opacity="1" transform="matrix(1,0,0,1,8.157999992370605,13.050000190734863)"><path stroke-linecap="round" stroke-linejoin="round" fill-opacity="0" stroke="rgb(71,71,71)" stroke-opacity="1" stroke-width="3" d=" M-0.296999990940094,3.9649999141693115 C-0.3580000102519989,3.240999937057495 -0.3889999985694885,2.5139999389648438 -0.3889999985694885,1.7869999408721924"></path></g></g><g transform="matrix(1,0,0,1,8.33799934387207,31.993000030517578)" opacity="1" style="display: block;"><g opacity="1" transform="matrix(1,0,0,1,8.743000030517578,8.548999786376953)"><path stroke-linecap="round" stroke-linejoin="round" fill-opacity="0" stroke="rgb(71,71,71)" stroke-opacity="1" stroke-width="3" d=" M0.746999979019165,0.9470000267028809 C0.5230000019073486,0.9089999794960022 0.3059999942779541,0.8370000123977661 0.10199999809265137,0.7360000014305115"></path></g></g><g transform="matrix(1,0,0,1,1.4860000610351562,59.11800003051758)" opacity="1" style="display: block;"><g opacity="1" transform="matrix(1,0,0,1,10.045000076293945,7.953999996185303)"><path stroke-linecap="round" stroke-linejoin="round" fill-opacity="0" stroke="rgb(71,71,71)" stroke-opacity="1" stroke-width="3" d=" M1.8070000410079956,-0.4129999876022339 C1.4700000286102295,-0.4020000100135803 1.1330000162124634,-0.3779999911785126 0.7979999780654907,-0.34200000762939453"></path></g></g><g transform="matrix(1,0,0,1,10.281000137329102,77.87100219726562)" opacity="1" style="display: block;"><g opacity="1" transform="matrix(1,0,0,1,7.789000034332275,7.921000003814697)"><path stroke-linecap="round" stroke-linejoin="round" fill-opacity="0" stroke="rgb(71,71,71)" stroke-opacity="1" stroke-width="3" d=" M0.2070000022649765,-0.3009999990463257 C0.12099999934434891,-0.1770000010728836 0.035999998450279236,-0.052000001072883606 -0.04899999871850014,0.07199999690055847"></path></g></g><g transform="matrix(1,0,0,1,713.1060180664062,24.880996704101562)" opacity="1" style="display: block;"><g opacity="1" transform="matrix(1,0,0,1,14.593999862670898,14.303000450134277)"><path stroke-linecap="round" stroke-linejoin="round" fill-opacity="0" stroke="rgb(71,71,71)" stroke-opacity="1" stroke-width="3" d=" M-6.087535381317139,-0.8418731689453125 C-2.083597183227539,-0.474616676568985 -0.3672564923763275,-2.190814971923828 1.4218500852584839,-5.837790012359619 C1.3489418029785156,-3.0488431453704834 2.206254482269287,-1.3326447010040283 6.087535381317139,-0.08920532464981079 C1.3480840921401978,0.3835536241531372 -0.3672564923763275,2.0998942852020264 -1.5523693561553955,5.837790012359619 C-1.2254267930984497,2.0998942852020264 -2.083597183227539,-0.474616676568985 -6.087535381317139,-0.8418731689453125z"></path></g></g><g transform="matrix(1,0,0,1,724.77099609375,-2.165999412536621)" opacity="1" style="display: block;"><g opacity="1" transform="matrix(1,0,0,1,15.309000015258789,16.8439998626709)"><path stroke-linecap="round" stroke-linejoin="round" fill-opacity="0" stroke="rgb(71,71,71)" stroke-opacity="1" stroke-width="3" d=" M-0.9518871903419495,-8.49510669708252 C-0.6609168648719788,-6.322288990020752 -0.7354341149330139,-0.9508872032165527 -7.099485397338867,0.8673617243766785 C-4.3720221519470215,0.8673617243766785 -0.7355242371559143,2.6857008934020996 0.3454709053039551,8.49510669708252 C0.1736002117395401,0.8673617243766785 5.7721028327941895,0.2727733850479126 7.099485397338867,0.050951357930898666 C2.9019734859466553,-0.04176274687051773 1.0828148126602173,-2.7693164348602295 -0.9518871903419495,-8.49510669708252z"></path></g></g><g transform="matrix(1,0,0,1,707.7049560546875,10.630999565124512)" opacity="1" style="display: block;"><g opacity="1" transform="matrix(1,0,0,1,12.057999610900879,11.550999641418457)"><path stroke-linecap="round" stroke-linejoin="round" fill-opacity="0" stroke="rgb(71,71,71)" stroke-opacity="1" stroke-width="3" d=" M0.0038775489665567875,-1.9573101997375488 C0.0038775489665567875,-0.5078670978546143 -1.238147258758545,0.2650968134403229 -2.2025039196014404,0.5432497262954712 C-1.1296066045761108,0.32613757252693176 0.052831605076789856,0.9503005146980286 0.48266300559043884,1.9573101997375488 C0.513198733329773,1.4741624593734741 0.9701729416847229,-0.024719374254345894 2.2025039196014404,-0.07028057426214218 C0.9701729416847229,-0.024719374254345894 0.04604589566588402,-1.2919483184814453 0.0038775489665567875,-1.9573101997375488z"></path></g></g></g></svg>