<svg xmlns="http://www.w3.org/2000/svg" viewBox="0 0 96 120" x="0px" y="0px"><title>home</title><g data-name="1"><path d="M22.56,89.42H36.47a2.5,2.5,0,0,0,2.5-2.5V64A9,9,0,0,1,57,64V86.92a2.5,2.5,0,0,0,2.5,2.5H73.44A12.85,12.85,0,0,0,86.28,76.58V38.77a12.88,12.88,0,0,0-5.07-10.22L55.77,9.19a12.87,12.87,0,0,0-15.54,0L14.79,28.55A12.88,12.88,0,0,0,9.72,38.77V76.58A12.85,12.85,0,0,0,22.56,89.42ZM14.72,38.77a7.89,7.89,0,0,1,3.09-6.24L43.25,13.17a7.89,7.89,0,0,1,9.5,0L78.19,32.53a7.89,7.89,0,0,1,3.09,6.24V76.58a7.85,7.85,0,0,1-7.84,7.84H62V64A14,14,0,0,0,34,64V84.42H22.56a7.85,7.85,0,0,1-7.84-7.84Z"/></g></svg>